<svg xmlns="http://www.w3.org/2000/svg" id="b0b64fd3-593b-4f14-838d-bde553553324" width="888" height="592.354" data-name="Layer 1" viewBox="0 0 888 592.354"><title>order_ride</title><polygon fill="#e6e6e6" points="581.456 498.527 423.119 442.132 423.119 441.335 420.882 441.335 159.252 441.335 159.185 441.335 0 498.527 .458 498.527 .458 513.778 581.914 513.778 581.914 498.527 581.456 498.527"/><ellipse cx="692.31" cy="576.401" fill="#e6e6e6" rx="195.69" ry="15.953"/><path fill="#9f616a" d="M748.04248,442.77333l-9.807,9.19752s-26.57318,21.66894-14.23866,29.61815,26.08591-23.92268,26.08591-23.92268l5.29948-8.223Z" transform="translate(-156 -153.82305)"/><path fill="#e6e6e6" d="M804.88379,284.6674l-13.85891,3.26092s-3.26091,13.8589-2.44568,26.90257-3.1906,37.25226-3.1906,37.25226l-9.39839,21.858-39.35064,74.44716,24.46121,10.63531,43.783-85.49618,4.07614-54.62038Z" transform="translate(-156 -153.82305)"/><ellipse cx="669.489" cy="46.06" fill="#2f2e41" rx="43.39" ry="46.06"/><circle cx="707.988" cy="92.936" r="22.826" fill="#2f2e41"/><polygon fill="#9f616a" points="692.091 62.365 704.319 94.159 673.341 107.203 670.621 101.038 661.112 79.485 692.091 62.365"/><path fill="#2f2e41" d="M889.66766,390.64724l11.41322,53.80516,15.48936,120.654L905.157,675.16237s-34.23964,11.41321-47.28331-9.78276l15.48936-90.49048L842.38435,468.09405,837.493,573.25867l8.1523,91.30571s-25.27212,14.67413-45.65286,0l-13.8589-180.981s-10.598-79.07727,13.8589-105.16462Z" transform="translate(-156 -153.82305)"/><circle cx="667.634" cy="55.843" r="27.31" fill="#9f616a"/><path fill="#e6e6e6" d="M823.63407,262.6562l2.67078-8.51167s24.604-4.05348,31.755-12.03742l12.85758,13.212s35.05487,11.41322,39.94625,16.3046-19.56551,80.70772-19.56551,80.70772,5.70661,13.04368-4.07615,18.75028c0,0,14.67414,22.0112,3.26092,24.45689s-93.7514-14.67413-93.7514-14.67413-5.70661-9.78276,7.33707-13.8589c0,0-4.89138-11.41322.81523-15.48937s.81523-26.90257.81523-26.90257S788.5792,290.374,791.02488,287.92832,823.63407,262.6562,823.63407,262.6562Z" transform="translate(-156 -153.82305)"/><path fill="#9f616a" d="M903.52657,462.38745l-.81523,6.52183s.81523,39.131-13.85891,37.50056-5.7066-39.94625-5.7066-39.94625l2.44568-8.96752Z" transform="translate(-156 -153.82305)"/><path fill="#2f2e41" d="M885.59151,667.8253s-3.26091,32.60918,2.44569,35.05487,44.0224,22.82643,32.60919,31.79395-49.729-14.67413-53.80516-10.598-17.11982.81523-17.93505-6.52184.81523-20.38074,7.33707-28.533,6.52184-24.45689,6.52184-24.45689Z" transform="translate(-156 -153.82305)"/><path fill="#2f2e41" d="M839.12343,655.59686,844.83,682.49943s12.22844,26.90258,1.63046,32.60918-12.22845,6.52184-13.04368,9.78276-22.82643,20.38074-29.34826,7.33707,17.11982-31.794,17.11982-31.794l4.07615-8.96752-4.07615-31.794Z" transform="translate(-156 -153.82305)"/><path fill="#2f2e41" d="M801.31155,206.6709c17.16539-11.45425,22.29684-14.19239,41.97218-9.76794l1.18005-28.70414-50.84414,10.66591Z" transform="translate(-156 -153.82305)"/><path fill="#e6e6e6" d="M903.52657,272.439l8.15229-.81523s8.1523,21.196,8.1523,31.79395v70.10974l-13.04368,92.12094-25.27211-4.07614,13.8589-82.33819-4.07615-49.729Z" transform="translate(-156 -153.82305)"/><rect width="13.826" height="324.377" x="823.125" y="248.833" fill="#3f3d56"/><rect width="76.574" height="102.099" x="791.75" y="158.433" fill="#3f3d56"/><path fill="#6c63ff" d="M1012.62584,375.00466a2.427,2.427,0,0,0-1.37576.46354l-4.3576-35.58778a6.022,6.022,0,0,0-5.9773-5.28994H971.16a6.022,6.022,0,0,0-5.9773,5.28994l-4.3576,35.58778a2.4271,2.4271,0,0,0-1.37576-.46354c-2.34952,0-4.25412,3.80927-4.25412,8.50825s1.9046,8.50824,4.25412,8.50824c1.78484,0,3.31055-2.20087,3.942-5.31765h45.29249c.63148,3.11678,2.15719,5.31765,3.942,5.31765,2.34958,0,4.25412-3.80927,4.25412-8.50824S1014.97542,375.00466,1012.62584,375.00466Zm-40.41418,2.12706a5.31766,5.31766,0,1,1,5.31766-5.31765A5.31763,5.31763,0,0,1,972.21166,377.13172Zm26.58828,0a5.31766,5.31766,0,1,1,5.31765-5.31765A5.31763,5.31763,0,0,1,998.79994,377.13172Zm6.38118-20.31595a3.2994,3.2994,0,0,1-3.29938,3.29945H970.1934a3.2994,3.2994,0,0,1-3.29939-3.29945V346.39818a3.2994,3.2994,0,0,1,3.29939-3.29945h31.68834a3.2994,3.2994,0,0,1,3.29938,3.29945Z" transform="translate(-156 -153.82305)"/><path fill="#3f3d56" d="M725.0678,438.57882l3.10332,6.02989a.23708.23708,0,0,1-.102.31844l-.14964.077,16.16628,31.41177a3.68631,3.68631,0,0,1-1.59073,4.96431l-19.62741,10.10138a3.68545,3.68545,0,0,1-4.9634-1.59119L702.3049,459.58034l-.10834.05576a.167.167,0,0,1-.2248-.07127l-1.76616-3.43174a.16724.16724,0,0,1,.07218-.22528l.10833-.05576-.66526-1.29264-.10926.05623a.17516.17516,0,0,1-.23547-.07622l-1.74207-3.38493a.17494.17494,0,0,1,.07529-.235l.10926-.05623-.90813-1.76453-.11109.05717a.15467.15467,0,0,1-.20859-.06683l-.95065-1.84716a.15556.15556,0,0,1,.06637-.2095l.11109-.05718-1.92493-3.74022a3.68521,3.68521,0,0,1,1.59028-4.96291l19.62742-10.10138a3.6861,3.6861,0,0,1,4.96384,1.5898l4.52551,8.79328.14964-.077A.23706.23706,0,0,1,725.0678,438.57882Z" transform="translate(-156 -153.82305)"/><path fill="#6c63ff" d="M718.83833,431.21639l23.81779,46.279a2.33872,2.33872,0,0,1-1.00971,3.1487l-18.78831,9.66953a2.33461,2.33461,0,0,1-3.14915-1.00833l-23.81779-46.279a2.33856,2.33856,0,0,1,1.00923-3.14962l2.812-1.44724.18569.3608a1.92566,1.92566,0,0,0,2.5934.831l9.55528-4.91768a1.92567,1.92567,0,0,0,.831-2.5934l-.18569-.3608,2.99658-1.54221A2.33791,2.33791,0,0,1,718.83833,431.21639Z" transform="translate(-156 -153.82305)"/><path fill="#3f3d56" d="M547.86392,546.32783a9.18988,9.18988,0,0,0-5.2094,1.75523L526.15423,413.32781a22.8027,22.8027,0,0,0-22.6334-20.03066h-112.67a22.8027,22.8027,0,0,0-22.6334,20.03066L351.71717,548.08306a9.19049,9.19049,0,0,0-5.2094-1.75523c-8.89659,0-16.1085,14.42405-16.1085,32.217s7.21191,32.217,16.1085,32.217c6.75841,0,12.5356-8.33372,14.9267-20.13562H532.93722c2.3911,11.8019,8.16829,20.13562,14.9267,20.13562,8.89683,0,16.10849-14.424,16.10849-32.217S556.76075,546.32783,547.86392,546.32783Zm-153.03068,8.05425a20.13562,20.13562,0,1,1,20.13562-20.13562A20.13552,20.13552,0,0,1,394.83324,554.38208Zm100.67808,0a20.13562,20.13562,0,1,1,20.13562-20.13562A20.13552,20.13552,0,0,1,495.51132,554.38208Zm24.16274-76.92754a12.49339,12.49339,0,0,1-12.49333,12.49357H387.191a12.49338,12.49338,0,0,1-12.49332-12.49357V438.00771A12.49338,12.49338,0,0,1,387.191,425.51414H507.18073a12.49339,12.49339,0,0,1,12.49333,12.49357Z" transform="translate(-156 -153.82305)"/><polygon fill="#6c63ff" points="312.277 245.849 270.094 245.849 279.134 232.29 303.238 232.29 312.277 245.849"/><circle cx="286.071" cy="165.488" r="47.29" fill="#6c63ff"/><polygon fill="#fff" points="281.565 185.45 267.411 167.251 275.642 160.849 282.344 169.466 304.984 145.566 312.555 152.739 281.565 185.45"/><rect width="9.532" height="5.719" x="285.962" y="442.686" fill="#fff"/><path fill="#fff" d="M451.494,651.476H441.962V639.16437H451.494Zm0-24.6242H441.962V614.54018H451.494Z" transform="translate(-156 -153.82305)"/><rect width="9.532" height="5.719" x="285.962" y="509.966" fill="#fff"/></svg>